<?xml version="1.0" encoding="UTF-8"?>
<svg version="1.1" xmlns="http://www.w3.org/2000/svg" width="747" height="97">
<path d="M0 0 C39.76470588 0 39.76470588 0 49.3125 6.125 C55.01632274 12.22676386 58.25822593 19.59331138 58 28 C56.97324916 38.11194005 53.5478806 44.07225577 45.90234375 50.6171875 C44 52 44 52 41 53 C43.56294295 61.7984555 47.64510916 69.81394756 51.6875 78 C52.73904555 80.13960811 53.78898371 82.27998326 54.83686829 84.42138672 C55.48548074 85.74581632 56.13644167 87.06909888 56.78996277 88.39111328 C59 92.88922465 59 92.88922465 59 94 C54.05 94 49.1 94 44 94 C41.57411549 88.76947117 39.15316595 83.53669836 36.73681641 78.30175781 C35.91363531 76.52020283 35.08909508 74.73927522 34.26318359 72.95898438 C33.07814704 70.40397158 31.89797293 67.84676266 30.71875 65.2890625 C30.34689575 64.49005524 29.9750415 63.69104797 29.59191895 62.86782837 C27 57.22774341 27 57.22774341 27 55 C22.05 55 17.1 55 12 55 C12 67.87 12 80.74 12 94 C8.04 94 4.08 94 0 94 C0 62.98 0 31.96 0 0 Z M12 11 C12 21.56 12 32.12 12 43 C15.67125 43.0825 19.3425 43.165 23.125 43.25 C24.2711377 43.28641602 25.41727539 43.32283203 26.59814453 43.36035156 C32.74148572 43.42713872 36.35372399 43.1487341 41 39 C44.67874868 34.68698431 45.12927497 29.50711356 45 24 C43.35688032 18.10409996 40.83924832 15.42780089 36 12 C33.05868109 11.01956036 31.17498335 10.88378798 28.11328125 10.90234375 C26.845448 10.90609009 26.845448 10.90609009 25.55200195 10.90991211 C24.48296631 10.91901611 23.41393066 10.92812012 22.3125 10.9375 C18.909375 10.958125 15.50625 10.97875 12 11 Z " fill="#006EFF" transform="translate(383,1)"/>
<path d="M0 0 C7.1118477 4.30581256 11.1969022 9.87015428 13.3125 17.9375 C13.74968599 22.16597174 13.75691737 26.36879789 13.74609375 30.6171875 C13.7513356 31.8251297 13.75657745 33.0330719 13.76197815 34.27761841 C13.76838091 36.8242313 13.76708409 39.37087384 13.75854492 41.91748047 C13.75004237 45.7931846 13.77881226 49.66741019 13.81054688 53.54296875 C13.81215938 56.02604123 13.81158042 58.50911629 13.80859375 60.9921875 C13.82544472 62.71452103 13.82544472 62.71452103 13.84263611 64.47164917 C13.76980817 72.96933605 11.92777546 79.41106171 7.6875 86.75 C0.68754162 93.19733009 -7.34233403 95.13554325 -16.6875 94.9375 C-24.23677269 94.40695082 -29.94033798 91.86195989 -35.6875 86.9375 C-42.12076831 79.18458691 -42.00492518 70.9826705 -42.0234375 61.35546875 C-42.0300943 60.1461116 -42.0367511 58.93675446 -42.04360962 57.69075012 C-42.05371095 55.13816849 -42.05842742 52.58556058 -42.05810547 50.03295898 C-42.0624736 46.14847829 -42.09880893 42.26513896 -42.13671875 38.38085938 C-42.14258856 35.89323302 -42.14655685 33.40560131 -42.1484375 30.91796875 C-42.16280853 29.76660934 -42.17717957 28.61524994 -42.19198608 27.42900085 C-42.1453007 19.09978618 -40.88662803 11.89278557 -35.5390625 5.28125 C-34.80429688 4.6728125 -34.06953125 4.064375 -33.3125 3.4375 C-32.58289063 2.8084375 -31.85328125 2.179375 -31.1015625 1.53125 C-22.79238696 -3.95441929 -9.01645047 -4.17199535 0 0 Z M-24.6875 11.9375 C-28.54288826 16.83488509 -29.79767788 20.55375105 -29.84863281 26.67089844 C-29.85824036 27.60577087 -29.8678479 28.54064331 -29.87774658 29.50384521 C-29.88199646 30.50804504 -29.88624634 31.51224487 -29.890625 32.546875 C-29.89632507 33.58765198 -29.90202515 34.62842896 -29.90789795 35.70074463 C-29.91733953 37.90302517 -29.92387859 40.10531978 -29.92773438 42.30761719 C-29.93742361 45.66106112 -29.96844881 49.01388777 -30 52.3671875 C-30.00653215 54.51041304 -30.01178179 56.65364295 -30.015625 58.796875 C-30.0279718 59.79297791 -30.0403186 60.78908081 -30.05303955 61.81536865 C-30.03077362 68.84497686 -29.30145332 74.75174439 -24.6875 80.375 C-20.06323918 83.98770376 -14.2747272 83.38874449 -8.6875 82.9375 C-4.50249694 81.24569025 -2.17935311 78.67527966 0.3125 74.9375 C1.15391316 71.62251298 1.44513385 68.50261241 1.47363281 65.09057617 C1.48324036 64.15577927 1.4928479 63.22098236 1.50274658 62.25785828 C1.50699646 61.25881973 1.51124634 60.25978119 1.515625 59.23046875 C1.52417511 57.6714257 1.52417511 57.6714257 1.53289795 56.08088684 C1.54232976 53.88458265 1.54887469 51.68826441 1.55273438 49.49194336 C1.56243512 46.14737029 1.59347434 42.80341325 1.625 39.45898438 C1.63153123 37.32031613 1.63678123 35.18164351 1.640625 33.04296875 C1.6529718 32.0500029 1.6653186 31.05703705 1.67803955 30.03398132 C1.65874825 23.96424666 0.91904424 19.44820136 -1.6875 13.9375 C-5.50514531 10.21529582 -8.71115292 8.79711341 -14 8.6875 C-18.27910587 8.756966 -21.10537045 9.43833985 -24.6875 11.9375 Z " fill="#0083FF" transform="translate(270.6875,2.0625)"/>
<path d="M0 0 C3.96 0 7.92 0 12 0 C12.01213028 1.31092369 12.01213028 1.31092369 12.02450562 2.64833069 C12.10258728 10.90203153 12.18991866 19.15557227 12.28752708 27.4090662 C12.33738009 31.65182821 12.38371073 35.89456664 12.421875 40.13745117 C12.45886719 44.23540536 12.50526417 48.33315688 12.55806351 52.43093681 C12.57653367 53.99091458 12.59166859 55.55093567 12.60334396 57.11097908 C12.62033357 59.30344326 12.64939728 61.49545071 12.68115234 63.68774414 C12.69447601 64.93350723 12.70779968 66.17927032 12.7215271 67.46278381 C13.10786986 72.37018366 13.78530981 76.55755541 17 80.375 C21.70133445 84.19483424 27.18824842 83.5462743 33 83 C36.57224542 81.33705816 38.3240701 80.30842035 40.12850952 76.81550598 C41.20831607 73.32699765 41.28150517 70.29274426 41.31884766 66.6394043 C41.33391609 65.55566277 41.33391609 65.55566277 41.34928894 64.45002747 C41.38004662 62.07476558 41.39713516 59.69961604 41.4140625 57.32421875 C41.43278014 55.67225686 41.452354 54.02030447 41.4727478 52.36836243 C41.52401211 48.02999479 41.56366826 43.69159618 41.60089111 39.35308838 C41.64096657 34.92216362 41.69204274 30.49136709 41.7421875 26.06054688 C41.83887926 17.37378561 41.92330554 8.68696073 42 0 C46.29 0 50.58 0 55 0 C55.06809495 9.04999311 55.12299874 18.09981279 55.15543652 27.15000534 C55.17101422 31.35351927 55.1921059 35.55684706 55.22631836 39.76025391 C55.25919645 43.82570444 55.27691219 47.89097725 55.28463173 51.9565506 C55.29012469 53.49850507 55.30084923 55.04045113 55.31719017 56.5823288 C55.54453886 78.94766307 55.54453886 78.94766307 48.8125 87.5 C42.66270366 93.66260842 36.66130131 95.59609313 28.0234375 96.03125 C20.01957388 95.94852273 13.20082665 94.23410535 7 89 C1.13658186 82.74867124 -0.25559954 75.78526388 -0.22705078 67.32055664 C-0.22734283 66.58801666 -0.22763489 65.85547668 -0.22793579 65.10073853 C-0.22655367 62.70375299 -0.21104587 60.3070868 -0.1953125 57.91015625 C-0.19157838 56.2386441 -0.18873329 54.56712975 -0.18673706 52.89561462 C-0.17913199 48.51441311 -0.15951062 44.13334599 -0.1373291 39.75219727 C-0.11680307 35.27426979 -0.10772094 30.79632042 -0.09765625 26.31835938 C-0.07626154 17.54551151 -0.04216369 8.77277252 0 0 Z " fill="#006FFF" transform="translate(306,1)"/>
<path d="M0 0 C18.15 0 36.3 0 55 0 C55 3.63 55 7.26 55 11 C40.81 11 26.62 11 12 11 C12 20.24 12 29.48 12 39 C24.54 39 37.08 39 50 39 C50 42.96 50 46.92 50 51 C37.46 51 24.92 51 12 51 C12 61.56 12 72.12 12 83 C26.19 83 40.38 83 55 83 C55 86.63 55 90.26 55 94 C36.85 94 18.7 94 0 94 C0 62.98 0 31.96 0 0 Z " fill="#00A0FF" transform="translate(614,1)"/>
<path d="M0 0 C6.81898438 3.78832466 12.08352409 8.1673083 14.375 15.875 C14.66811396 18.96470949 14.56968265 21.76007759 14.375 24.875 C10.415 24.875 6.455 24.875 2.375 24.875 C2.024375 23.3075 1.67375 21.74 1.3125 20.125 C0.11477179 16.2282437 -0.45379101 15.02480786 -3.625 12.25 C-9.51540309 9.61119947 -16.08838457 10.10495603 -22.125 11.9375 C-25.54592095 14.58871374 -26.46654475 16.71819 -27.625 20.875 C-27.88397542 26.46455289 -26.42670142 30.69312844 -22.625 34.875 C-18.14547003 37.66338158 -13.10122483 39.04126209 -8.09057617 40.57470703 C1.19636478 43.47002709 8.45187918 46.84960667 13.375 55.625 C16.45144917 62.62951058 17.52891074 70.50071032 15.21875 77.90234375 C12.27395834 84.78715759 8.60153518 89.65630222 1.78125 92.94140625 C-7.91946316 96.70515697 -18.83387423 97.15402684 -28.5625 93.125 C-35.44506079 89.59548165 -40.09765945 85.33793231 -42.625 77.875 C-43.18501247 74.84434429 -43.43209839 71.96142571 -43.625 68.875 C-39.335 68.875 -35.045 68.875 -30.625 68.875 C-30.233125 70.2775 -29.84125 71.68 -29.4375 73.125 C-28.0264068 77.37834254 -26.56185659 79.51288605 -22.625 81.875 C-16.98139348 83.75620217 -9.97668815 83.95492623 -4.28515625 82.12109375 C-0.84085042 80.26422697 0.96674406 78.46378127 2.375 74.875 C3.16910451 69.36243733 2.99276466 64.03328716 -0.1953125 59.328125 C-3.97363047 55.48786739 -9.34752186 54.29186129 -14.3359375 52.6640625 C-14.99102295 52.45023926 -15.6461084 52.23641602 -16.32104492 52.01611328 C-18.2335158 51.40042755 -20.1537596 50.80904689 -22.07421875 50.21875 C-29.4363738 47.43263192 -34.7579227 42.84674827 -38.66796875 36.06640625 C-41.76076104 29.08221332 -41.84917434 20.62891883 -39.375 13.4375 C-35.85438425 6.27053222 -31.69051872 3.2581213 -24.625 -0.125 C-17.71391781 -2.42869406 -6.9901226 -2.35311058 0 0 Z " fill="#00B2FF" transform="translate(730.625,1.125)"/>
<path d="M0 0 C5.28 0 10.56 0 16 0 C17.96766254 5.75912609 19.7472352 11.50252605 21.26831055 17.39379883 C21.47357361 18.17872711 21.67883667 18.9636554 21.89031982 19.77236938 C22.55898478 22.33310226 23.22309164 24.89498855 23.88671875 27.45703125 C24.35312502 29.25065973 24.81966468 31.04425354 25.28633118 32.83781433 C26.25918252 36.58004705 27.22961997 40.32289579 28.19848633 44.06616211 C29.44056672 48.86372573 30.68994269 53.65935592 31.94125652 58.45451832 C32.90457772 62.15019593 33.8634313 65.84702161 34.82099342 69.54419518 C35.27997561 71.31363128 35.74049514 73.08266936 36.20258141 74.85129738 C36.84631906 77.31741489 37.48387599 79.7850505 38.11987305 82.25317383 C38.40735161 83.3465078 38.40735161 83.3465078 38.70063782 84.46192932 C39.55269257 87.79397869 40 90.52972945 40 94 C36.04 94 32.08 94 28 94 C26.36914309 89.32046915 25.07035801 84.61606828 23.875 79.8125 C23.69324219 79.10158203 23.51148438 78.39066406 23.32421875 77.65820312 C22.58281051 74.69535741 22 72.06668869 22 69 C12.76 69 3.52 69 -6 69 C-6.33 71.64 -6.66 74.28 -7 77 C-7.27998958 78.42215294 -7.58497073 79.84016478 -7.9375 81.24609375 C-8.11023438 81.93767578 -8.28296875 82.62925781 -8.4609375 83.34179688 C-8.63882813 84.03337891 -8.81671875 84.72496094 -9 85.4375 C-9.17789063 86.15615234 -9.35578125 86.87480469 -9.5390625 87.61523438 C-10.86850111 92.86850111 -10.86850111 92.86850111 -12 94 C-14.01964199 94.07244053 -16.04167124 94.08377188 -18.0625 94.0625 C-19.16722656 94.05347656 -20.27195312 94.04445313 -21.41015625 94.03515625 C-22.26480469 94.02355469 -23.11945313 94.01195313 -24 94 C-23.39513119 88.30249524 -22.35500263 82.94428884 -20.8828125 77.41259766 C-20.56313507 76.18671432 -20.56313507 76.18671432 -20.23699951 74.93606567 C-19.53796944 72.26073437 -18.83164118 69.58739259 -18.125 66.9140625 C-17.63519544 65.0470876 -17.14578082 63.18001035 -16.65673828 61.31283569 C-15.63433792 57.41361228 -14.6085485 53.51530246 -13.58007812 49.61767578 C-12.2601837 44.61527183 -10.94679102 39.61119006 -9.63565063 34.60648537 C-8.62694639 30.75767759 -7.61586323 26.90949822 -6.60394287 23.06153488 C-6.11861247 21.21562187 -5.63378852 19.36957563 -5.1494751 17.52339554 C-4.47431666 14.95200386 -3.79620756 12.3814094 -3.1171875 9.81103516 C-2.91663757 9.04533203 -2.71608765 8.27962891 -2.50946045 7.49072266 C-1.11455012 2.22910023 -1.11455012 2.22910023 0 0 Z M7 15 C5.57143685 20.78302121 4.1473896 26.5671284 2.72753906 32.35229492 C2.2437578 34.32070023 1.75873798 36.28880156 1.27246094 38.2565918 C0.57422231 41.08303327 -0.11957329 43.91053348 -0.8125 46.73828125 C-1.03123779 47.61962234 -1.24997559 48.50096344 -1.4753418 49.40901184 C-1.67554932 50.22963608 -1.87575684 51.05026031 -2.08203125 51.89575195 C-2.25968018 52.61745071 -2.4373291 53.33914948 -2.62036133 54.0827179 C-3.0971188 56.16472615 -3.0971188 56.16472615 -3 59 C4.26 59 11.52 59 19 59 C17.40409768 49.48338246 15.18053141 40.17530556 12.875 30.8125 C12.4984018 29.27285886 12.1220976 27.73314577 11.74609375 26.19335938 C10.83411175 22.46140266 9.91817333 18.73043806 9 15 C8.34 15 7.68 15 7 15 Z " fill="#00AAFF" transform="translate(95,1)"/>
<path d="M0 0 C4.29 0 8.58 0 13 0 C17.55737854 15.72193718 21.41672624 31.61440647 25.29675293 47.51324463 C26.16649087 51.0744355 27.03945384 54.63483567 27.91210938 58.1953125 C29.61114998 65.12945723 31.30673632 72.06444211 33 79 C33.22026855 78.05833984 33.44053711 77.11667969 33.66748047 76.14648438 C37.95020876 57.85973198 42.29853584 39.59015758 46.83404541 21.36425781 C47.27838726 19.57825687 47.7215414 17.79196002 48.16351318 16.00537109 C48.78234012 13.50653337 49.40596871 11.00894813 50.03125 8.51171875 C50.21628082 7.76246628 50.40131165 7.01321381 50.59194946 6.24125671 C51.88514792 1.11485208 51.88514792 1.11485208 53 0 C55.01964199 -0.07244053 57.04167124 -0.08377188 59.0625 -0.0625 C60.71958984 -0.04896484 60.71958984 -0.04896484 62.41015625 -0.03515625 C63.26480469 -0.02355469 64.11945313 -0.01195313 65 0 C63.44100367 10.07940971 60.81874761 19.86728231 58.24609375 29.72265625 C57.7802385 31.51810968 57.31467229 33.31363813 56.84938049 35.10923767 C55.8793704 38.84911182 54.90667886 42.5882743 53.93188477 46.3269043 C52.68115049 51.12428613 51.43600954 55.92309803 50.19268703 60.72240543 C49.23452131 64.41934496 48.2740577 68.11568424 47.31282234 71.81182671 C46.85254074 73.58236344 46.39283569 75.35305017 45.93371391 77.12388802 C45.29456576 79.5871721 44.65247815 82.04967056 44.00952148 84.51196289 C43.81989334 85.24490067 43.6302652 85.97783844 43.43489075 86.73298645 C42.11443946 91.77112108 42.11443946 91.77112108 41 94 C35.39 94 29.78 94 24 94 C21.31187181 83.66391846 18.62526542 73.32744454 15.94125652 62.99029255 C14.6945966 58.18916816 13.44729861 53.38821152 12.19848633 48.58764648 C10.99092354 43.94554869 9.78511009 39.30299959 8.58045387 34.66014671 C8.12302356 32.89839035 7.66498758 31.13679112 7.20630455 29.37536049 C4.664049 19.61086346 2.21351798 9.84524662 0 0 Z " fill="#0097FF" transform="translate(147,1)"/>
<path d="M0 0 C18.15 0 36.3 0 55 0 C55 3.63 55 7.26 55 11 C40.81 11 26.62 11 12 11 C12 20.9 12 30.8 12 41 C25.2 41 38.4 41 52 41 C52 44.96 52 48.92 52 53 C38.8 53 25.6 53 12 53 C12 66.53 12 80.06 12 94 C8.04 94 4.08 94 0 94 C0 62.98 0 31.96 0 0 Z " fill="#00C0FF" transform="translate(0,1)"/>
<path d="M0 0 C16.83 0 33.66 0 51 0 C51 3.63 51 7.26 51 11 C44.73 11 38.46 11 32 11 C32 34.76 32 58.52 32 83 C38.27 83 44.54 83 51 83 C51 86.63 51 90.26 51 94 C34.17 94 17.34 94 0 94 C0 90.37 0 86.74 0 83 C6.27 83 12.54 83 19 83 C19 59.24 19 35.48 19 11 C12.73 11 6.46 11 0 11 C0 7.37 0 3.74 0 0 Z " fill="#007FFF" transform="translate(461,1)"/>
<path d="M0 0 C20.79 0 41.58 0 63 0 C63 3.63 63 7.26 63 11 C54.75 11 46.5 11 38 11 C38 38.39 38 65.78 38 94 C33.71 94 29.42 94 25 94 C25 66.61 25 39.22 25 11 C16.75 11 8.5 11 0 11 C0 7.37 0 3.74 0 0 Z " fill="#0090FF" transform="translate(532,1)"/>
</svg>
