<?xml version="1.0" encoding="UTF-8"?>
<svg version="1.1" xmlns="http://www.w3.org/2000/svg" width="519" height="97">
<path d="M0 0 C1.36125 0.804375 1.36125 0.804375 2.75 1.625 C10.90628538 10.23441235 11.15391261 20.82022344 11.16796875 32.01953125 C11.17296135 33.42835823 11.17296135 33.42835823 11.17805481 34.86564636 C11.18309236 36.84312454 11.18546412 38.82061112 11.18530273 40.7980957 C11.18748599 43.7932768 11.20566696 46.78808715 11.22460938 49.78320312 C11.30449063 76.06523175 11.30449063 76.06523175 4 85 C-2.01953751 90.86112863 -8.63193638 92.59062455 -16.8125 93.05078125 C-25.93514478 92.905445 -32.69298515 90.56420453 -39.22265625 84.1171875 C-45.53845477 76.59375278 -45.16452873 67.20124571 -45.203125 57.86328125 C-45.20882507 56.7880571 -45.21452515 55.71283295 -45.22039795 54.60502625 C-45.22982427 52.33312964 -45.23637249 50.06121952 -45.24023438 47.78930664 C-45.24991795 44.34171218 -45.28095563 40.89471983 -45.3125 37.44726562 C-45.31903321 35.23177434 -45.32428243 33.01627883 -45.328125 30.80078125 C-45.3404718 29.78268875 -45.3528186 28.76459625 -45.36553955 27.71565247 C-45.33598938 18.05785455 -44.09588278 8.77439297 -37.0546875 1.66015625 C-27.07372095 -6.40431292 -10.74360042 -6.84336241 0 0 Z M-31 14 C-32.00344955 17.01034865 -32.13813396 19.05455223 -32.16113281 22.20239258 C-32.17074036 23.26392044 -32.1803479 24.3254483 -32.19024658 25.41914368 C-32.19449646 26.56602158 -32.19874634 27.71289948 -32.203125 28.89453125 C-32.20882507 30.07464279 -32.21452515 31.25475433 -32.22039795 32.47062683 C-32.22985036 34.96974795 -32.23638288 37.46888155 -32.24023438 39.96801758 C-32.24993483 43.78684301 -32.28095476 47.60512915 -32.3125 51.42382812 C-32.3190306 53.8515593 -32.32428085 56.27929433 -32.328125 58.70703125 C-32.3404718 59.84783646 -32.3528186 60.98864166 -32.36553955 62.16401672 C-32.34965153 67.83388069 -32.31837256 72.15996199 -29 77 C-25.23316255 80.67025187 -22.09567828 81.31056958 -17 81.5 C-11.90432172 81.31056958 -8.76683745 80.67025187 -5 77 C-1.14964276 71.32092524 -1.56540281 65.63785951 -1.6015625 59.03125 C-1.59869232 57.87757935 -1.59582214 56.72390869 -1.59286499 55.53527832 C-1.59082756 53.10115059 -1.59633485 50.66700637 -1.60888672 48.23291016 C-1.624944 44.51297295 -1.60902612 40.79412227 -1.58984375 37.07421875 C-1.59182624 34.70572678 -1.59567003 32.33723547 -1.6015625 29.96875 C-1.59548981 28.85922974 -1.58941711 27.74970947 -1.5831604 26.60656738 C-1.64603858 19.68286915 -2.33500683 15.08139836 -7 9.6875 C-10.78239592 6.49610344 -14.7623423 6.66956859 -19.4921875 6.7109375 C-24.27610347 7.26235461 -27.99576648 10.36329627 -31 14 Z " fill="#1687FF" transform="translate(123,4)"/>
<path d="M0 0 C6.5142687 5.06237055 9.42869328 10.41265939 10.98046875 18.5390625 C10.98046875 19.8590625 10.98046875 21.1790625 10.98046875 22.5390625 C7.02046875 22.5390625 3.06046875 22.5390625 -1.01953125 22.5390625 C-1.93098958 20.03255208 -2.84244792 17.52604167 -3.75390625 15.01953125 C-5.71400882 11.1779722 -7.99589875 9.88027333 -12.01953125 8.5390625 C-18.2165851 8.03318055 -23.77872766 7.77643428 -29.01953125 11.5390625 C-31.98029836 16.19023297 -31.59124624 21.22365829 -31.01953125 26.5390625 C-29.57660497 30.43496345 -28.1615774 31.93611888 -24.50390625 33.8671875 C-19.36296757 36.10120798 -14.12084197 37.82634866 -8.76953125 39.4765625 C-0.70687834 42.12195581 4.82446863 46.08811784 9.015625 53.5390625 C12.56840601 60.90353164 13.10028327 68.35370193 10.85546875 76.1640625 C8.56878017 82.25835347 4.95770442 86.70447543 -0.76953125 89.8515625 C-11.04381372 94.36601995 -21.93154599 94.68339426 -32.45703125 90.7265625 C-39.46470765 87.55855544 -42.78791409 84.09448428 -46.08203125 77.15625 C-47.42843866 73.39752932 -47.38554495 70.49201044 -47.01953125 66.5390625 C-43.05953125 66.5390625 -39.09953125 66.5390625 -35.01953125 66.5390625 C-34.62765625 67.9415625 -34.23578125 69.3440625 -33.83203125 70.7890625 C-32.42093805 75.04240504 -30.95638784 77.17694855 -27.01953125 79.5390625 C-21.37592473 81.42026467 -14.3712194 81.61898873 -8.6796875 79.78515625 C-5.23633731 77.92880467 -3.40877726 76.1370176 -2.01953125 72.5390625 C-1.35190853 67.39992019 -1.44961481 62.90190617 -3.45703125 58.1015625 C-8.27357111 53.28502264 -14.20591123 51.78421096 -20.60473633 49.7878418 C-30.36616658 46.70839319 -37.97217078 42.81639713 -43.01953125 33.5390625 C-45.68565498 26.81027403 -46.16703024 19.35782475 -43.95703125 12.4140625 C-41.32801315 6.37343487 -36.98299991 1.26180336 -31.20703125 -1.9609375 C-21.80859572 -5.56205627 -8.60565478 -5.30262377 0 0 Z " fill="#189CFF" transform="translate(47.01953125,3.4609375)"/>
<path d="M0 0 C5.06365743 3.52504043 9.2271498 8.33582709 11.47265625 14.13671875 C11.83950089 17.16318707 11.78119488 20.15520988 11.72265625 23.19921875 C7.76265625 23.19921875 3.80265625 23.19921875 -0.27734375 23.19921875 C-0.68984375 21.79671875 -1.10234375 20.39421875 -1.52734375 18.94921875 C-2.79922204 15.13358387 -3.97857768 12.6732933 -7.27734375 10.19921875 C-12.97845603 8.29884799 -19.11226459 8.46463832 -24.77734375 10.38671875 C-27.6987473 12.50473633 -28.934091 13.84108688 -30.27734375 17.19921875 C-30.81314967 22.82518095 -30.46640268 26.36064658 -27.27734375 31.19921875 C-22.9295863 35.46172605 -18.00440163 36.89217115 -12.33984375 38.69921875 C-1.5412316 42.15919836 5.52429288 46.48183736 11.59765625 56.19921875 C14.20687962 63.08944333 14.19396444 72.9510477 11.22265625 79.69921875 C7.24496704 86.15066521 0.94910921 91.06682279 -6.27734375 93.19921875 C-17.08962415 94.88775073 -27.99162562 94.60935965 -37.27734375 88.19921875 C-41.86757459 84.10860487 -44.98846512 79.24790354 -46.27734375 73.19921875 C-46.27734375 71.21921875 -46.27734375 69.23921875 -46.27734375 67.19921875 C-42.31734375 67.19921875 -38.35734375 67.19921875 -34.27734375 67.19921875 C-33.76171875 68.76671875 -33.24609375 70.33421875 -32.71484375 71.94921875 C-31.0727821 75.94678953 -29.67714541 78.75674981 -25.53515625 80.6484375 C-19.28879362 82.17220416 -12.82238365 82.00291556 -6.71484375 80.07421875 C-3.20884553 77.37729704 -0.72729451 74.73208765 0.0703125 70.2421875 C0.276798 65.54688689 -0.65333722 62.18047003 -3.27734375 58.19921875 C-7.60066684 53.9685985 -12.40252638 52.60431593 -18.02734375 50.82421875 C-28.0003442 47.47779667 -35.9956876 44.5492176 -41.40234375 35.03125 C-44.57101778 28.39683874 -44.28276287 19.50556209 -42.62890625 12.421875 C-39.87550131 5.53836264 -35.24484891 1.84783273 -28.90234375 -1.67578125 C-20.26921048 -4.49717706 -8.05432218 -4.42289368 0 0 Z " fill="#02A6FF" transform="translate(506.27734375,2.80078125)"/>
<path d="M0 0 C5.61 0 11.22 0 17 0 C20.13062687 12.10805802 23.25996447 24.21644843 26.38763428 36.32527065 C27.83981392 41.94723741 29.29244559 47.56908658 30.74609375 53.19067383 C32.14765842 58.61090988 33.54805737 64.03144585 34.94763184 69.45219612 C35.48309398 71.52525734 36.01898355 73.5982082 36.55529785 75.67104912 C37.30360579 78.56353438 38.0504236 81.4564004 38.796875 84.34936523 C39.13350159 85.64840034 39.13350159 85.64840034 39.47692871 86.97367859 C41 92.88594784 41 92.88594784 41 94 C36.71 94 32.42 94 28 94 C27.18193166 91.14732627 26.37042204 88.29304815 25.5625 85.4375 C25.33240234 84.63763672 25.10230469 83.83777344 24.86523438 83.01367188 C24.64287109 82.22412109 24.42050781 81.43457031 24.19140625 80.62109375 C23.98717041 79.9036499 23.78293457 79.18620605 23.57250977 78.44702148 C22.84526402 75.33862739 22.45146429 72.16025002 22 69 C12.76 69 3.52 69 -6 69 C-6.33 71.64 -6.66 74.28 -7 77 C-7.29331479 78.50634798 -7.61142871 80.00847982 -7.97265625 81.5 C-8.14990234 82.24121094 -8.32714844 82.98242188 -8.50976562 83.74609375 C-8.69216797 84.48988281 -8.87457031 85.23367187 -9.0625 86 C-9.24876953 86.77472656 -9.43503906 87.54945312 -9.62695312 88.34765625 C-10.08076178 90.23270759 -10.53982492 92.1164927 -11 94 C-15.29 94 -19.58 94 -24 94 C-22.3641254 83.92280788 -19.82193121 74.14491348 -17.24609375 64.27734375 C-16.7802385 62.48189032 -16.31467229 60.68636187 -15.84938049 58.89076233 C-14.8793704 55.15088818 -13.90667886 51.4117257 -12.93188477 47.6730957 C-11.68115049 42.87571387 -10.43600954 38.07690197 -9.19268703 33.27759457 C-8.23452131 29.58065504 -7.2740577 25.88431576 -6.31282234 22.18817329 C-5.85254074 20.41763656 -5.39283569 18.64694983 -4.93371391 16.87611198 C-4.29456576 14.4128279 -3.65247815 11.95032944 -3.00952148 9.48803711 C-2.81989334 8.75509933 -2.6302652 8.02216156 -2.43489075 7.26701355 C-1.11443946 2.22887892 -1.11443946 2.22887892 0 0 Z M8 14 C5.2879447 23.90489763 2.75258275 33.85281575 0.25 43.8125 C-0.06783447 45.07094727 -0.38566895 46.32939453 -0.71313477 47.62597656 C-1.00889404 48.80772461 -1.30465332 49.98947266 -1.609375 51.20703125 C-1.87717773 52.2741333 -2.14498047 53.34123535 -2.42089844 54.44067383 C-3.07356402 56.88777695 -3.07356402 56.88777695 -3 59 C4.26 59 11.52 59 19 59 C18.26871832 52.74908527 18.26871832 52.74908527 17.06030273 46.6953125 C16.79013588 45.58506714 16.79013588 45.58506714 16.51451111 44.45239258 C16.32280838 43.68435303 16.13110565 42.91631348 15.93359375 42.125 C15.63606956 40.91009888 15.63606956 40.91009888 15.33253479 39.6706543 C14.70508452 37.11270784 14.07140437 34.55635378 13.4375 32 C13.00804887 30.25400819 12.57900845 28.50791531 12.15039062 26.76171875 C11.10500285 22.50662977 10.0540294 18.25295622 9 14 C8.67 14 8.34 14 8 14 Z " fill="#0D75FF" transform="translate(328,1)"/>
<path d="M0 0 C6.25339198 4.107394 10.54280433 10.05808118 12.1171875 17.390625 C12.31753584 19.79025174 12.26804179 21.97695634 12.1171875 24.390625 C8.1571875 24.390625 4.1971875 24.390625 0.1171875 24.390625 C-0.3984375 22.658125 -0.9140625 20.925625 -1.4453125 19.140625 C-3.24668191 14.18217546 -3.24668191 14.18217546 -7.0078125 10.703125 C-12.07835548 8.49428332 -17.80765146 8.28266257 -23.0078125 10.15625 C-26.54913375 12.01544366 -28.48645399 13.68716354 -29.8828125 17.390625 C-30.19750924 20.01337093 -30.19750924 20.01337093 -30.17333984 22.89013672 C-30.18609955 23.99163055 -30.19885925 25.09312439 -30.21200562 26.22799683 C-30.21423126 27.413461 -30.21645691 28.59892517 -30.21875 29.8203125 C-30.2254068 31.04340118 -30.2320636 32.26648987 -30.23892212 33.52664185 C-30.24904751 36.11393734 -30.25373917 38.70125894 -30.25341797 41.28857422 C-30.25778817 45.24360275 -30.29410349 49.19751288 -30.33203125 53.15234375 C-30.33789998 55.66666285 -30.34186899 58.18098725 -30.34375 60.6953125 C-30.35812103 61.87672821 -30.37249207 63.05814392 -30.38729858 64.27536011 C-30.35220311 70.59375088 -30.2232352 74.63016139 -25.8828125 79.390625 C-21.27811083 82.69607475 -15.27487054 81.93272199 -9.8828125 81.390625 C-5.82765979 79.86994273 -4.43485333 78.59712932 -2.640625 74.67578125 C-1.62284349 71.94882872 -0.74345785 69.17117151 0.1171875 66.390625 C4.0771875 66.390625 8.0371875 66.390625 12.1171875 66.390625 C12.7366495 73.51443798 10.84435953 79.69686035 6.57421875 85.48046875 C0.49130161 92.06449577 -6.32328192 93.81733947 -15.08203125 94.38671875 C-24.73975255 94.40018838 -31.83334727 91.35010211 -38.6953125 84.640625 C-43.91320885 76.88832185 -44.33144501 69.16160606 -44.28125 60.015625 C-44.28412018 58.85111816 -44.28699036 57.68661133 -44.28994751 56.48681641 C-44.2919799 54.03612784 -44.28650814 51.58542274 -44.27392578 49.13476562 C-44.25786133 45.40197174 -44.27380371 41.67026055 -44.29296875 37.9375 C-44.29098617 35.54687263 -44.2871422 33.15624593 -44.28125 30.765625 C-44.28732269 29.65912598 -44.29339539 28.55262695 -44.2996521 27.41259766 C-44.21411511 17.90241467 -42.676004 10.12522343 -35.9375 3.12109375 C-26.59596261 -4.74639877 -10.80958402 -5.16821862 0 0 Z " fill="#1473FF" transform="translate(198.8828125,2.609375)"/>
<path d="M0 0 C16.83 0 33.66 0 51 0 C51 3.63 51 7.26 51 11 C44.73 11 38.46 11 32 11 C32 34.76 32 58.52 32 83 C38.27 83 44.54 83 51 83 C51 86.63 51 90.26 51 94 C34.17 94 17.34 94 0 94 C0 90.37 0 86.74 0 83 C6.27 83 12.54 83 19 83 C19 59.24 19 35.48 19 11 C12.73 11 6.46 11 0 11 C0 7.37 0 3.74 0 0 Z " fill="#125FFF" transform="translate(234,1)"/>
<path d="M0 0 C3.96 0 7.92 0 12 0 C12 27.39 12 54.78 12 83 C25.86 83 39.72 83 54 83 C54 86.63 54 90.26 54 94 C36.18 94 18.36 94 0 94 C0 62.98 0 31.96 0 0 Z " fill="#088AFF" transform="translate(389,1)"/>
</svg>
